<svg width="32" height="32" viewBox="0 0 32 32" fill="none" xmlns="http://www.w3.org/2000/svg">
<rect width="32" height="32" rx="16" fill="#EDECEC"/>
<path fill-rule="evenodd" clip-rule="evenodd" d="M10.1667 8.5C8.78595 8.5 7.66666 9.61929 7.66666 11V21.8333C7.66666 22.7538 8.41285 23.5 9.33332 23.5H22.6667C23.5872 23.5 24.3333 22.7538 24.3333 21.8333V13.5C24.3333 12.5795 23.5872 11.8333 22.6667 11.8333V10.1667C22.6667 9.24619 21.9205 8.5 21 8.5H10.1667ZM9.33332 11C9.33332 10.5398 9.70642 10.1667 10.1667 10.1667H21V11.8333H10.1667C9.70642 11.8333 9.33332 11.4602 9.33332 11ZM20.5833 18.9167C21.2737 18.9167 21.8333 18.357 21.8333 17.6667C21.8333 16.9763 21.2737 16.4167 20.5833 16.4167C19.893 16.4167 19.3333 16.9763 19.3333 17.6667C19.3333 18.357 19.893 18.9167 20.5833 18.9167Z" fill="#828282"/>
</svg>
