<svg width="32" height="32" viewBox="0 0 32 32" fill="none" xmlns="http://www.w3.org/2000/svg">
<rect width="32" height="32" rx="16" fill="#EDECEC"/>
<path d="M8.2548 11.305L15.1667 7.31448C15.6823 7.01676 16.3177 7.01676 16.8333 7.31448L23.7452 11.305C24.1092 11.5152 24.3333 11.9035 24.3333 12.3237C24.3333 12.9734 23.8067 13.5 23.1571 13.5H8.84294C8.1933 13.5 7.66666 12.9734 7.66666 12.3237C7.66666 11.9035 7.89086 11.5152 8.2548 11.305Z" fill="#828282"/>
<path d="M16 15.1667C16.4602 15.1667 16.8333 15.5398 16.8333 16.0001V20.1667C16.8333 20.6269 16.4602 21.0001 16 21.0001C15.5397 21.0001 15.1667 20.6269 15.1667 20.1667V16.0001C15.1667 15.5398 15.5397 15.1667 16 15.1667Z" fill="#828282"/>
<path d="M23.5 24.3334C23.9602 24.3334 24.3333 23.9602 24.3333 23.5001C24.3333 23.0398 23.9602 22.6667 23.5 22.6667H8.49999C8.03976 22.6667 7.66666 23.0398 7.66666 23.5001C7.66666 23.9602 8.03976 24.3334 8.49999 24.3334H23.5Z" fill="#828282"/>
<path d="M20.5833 15.1667C21.0436 15.1667 21.4167 15.5398 21.4167 16.0001V20.1667C21.4167 20.6269 21.0436 21.0001 20.5833 21.0001C20.1231 21.0001 19.75 20.6269 19.75 20.1667V16.0001C19.75 15.5398 20.1231 15.1667 20.5833 15.1667Z" fill="#828282"/>
<path d="M11.4167 15.1667C11.8769 15.1667 12.25 15.5398 12.25 16.0001V20.1667C12.25 20.6269 11.8769 21.0001 11.4167 21.0001C10.9564 21.0001 10.5833 20.6269 10.5833 20.1667V16.0001C10.5833 15.5398 10.9564 15.1667 11.4167 15.1667Z" fill="#828282"/>
</svg>
